<?xml version="1.0" encoding="UTF-8" standalone="no"?>
<svg
   id="swisscom_logo"
   viewBox="0 0 76.080931 102.01206"
   version="1.1"
   sodipodi:docname="swisscom-lifeform.svg"
   width="76.080933"
   height="102.01206"
   inkscape:version="1.1.2 (0a00cf5339, 2022-02-04, custom)"
   xmlns:inkscape="http://www.inkscape.org/namespaces/inkscape"
   xmlns:sodipodi="http://sodipodi.sourceforge.net/DTD/sodipodi-0.dtd"
   xmlns="http://www.w3.org/2000/svg"
   xmlns:svg="http://www.w3.org/2000/svg"
   xmlns:rdf="http://www.w3.org/1999/02/22-rdf-syntax-ns#"
   xmlns:cc="http://creativecommons.org/ns#"
   xmlns:dc="http://purl.org/dc/elements/1.1/">
  <sodipodi:namedview
     id="namedview67"
     pagecolor="#ffffff"
     bordercolor="#666666"
     borderopacity="1.0"
     inkscape:pageshadow="2"
     inkscape:pageopacity="0.0"
     inkscape:pagecheckerboard="0"
     showgrid="false"
     fit-margin-top="0"
     fit-margin-left="0"
     fit-margin-right="0"
     fit-margin-bottom="0"
     inkscape:zoom="1.821079"
     inkscape:cx="-162.26644"
     inkscape:cy="47.499313"
     inkscape:window-width="1894"
     inkscape:window-height="1129"
     inkscape:window-x="0"
     inkscape:window-y="0"
     inkscape:window-maximized="1"
     inkscape:current-layer="swisscom_logo" />
  <defs
     id="defs43">
    <style
       id="style2">.cls-1{fill:none;}.cls-2{fill:#fff;}.cls-3{fill:url(#linear-gradient);}.cls-4{fill:url(#radial-gradient);}.cls-5{fill:url(#radial-gradient-2);}.cls-6{fill:url(#radial-gradient-3);}.cls-7{fill:url(#radial-gradient-4);}.cls-8{fill:url(#radial-gradient-5);}.cls-9{fill:url(#radial-gradient-6);}</style>
    <linearGradient
       id="linear-gradient"
       x1="69.550003"
       y1="-509.84"
       x2="60.119999"
       y2="-473.87"
       gradientTransform="matrix(1,0,0,-1,0,-381.05)"
       gradientUnits="userSpaceOnUse">
      <stop
         offset="0"
         stop-color="#350706"
         id="stop4" />
      <stop
         offset="0.36"
         stop-color="#3f0808"
         id="stop6" />
      <stop
         offset="0.98"
         stop-color="#5b0c0e"
         id="stop8" />
      <stop
         offset="1"
         stop-color="#5c0c0e"
         id="stop10" />
    </linearGradient>
    <radialGradient
       id="radial-gradient"
       cx="70.690002"
       cy="-437.35001"
       r="20.17"
       gradientTransform="matrix(1,0,0,-1,0,-381.05)"
       gradientUnits="userSpaceOnUse">
      <stop
         offset="0"
         stop-color="#003789"
         id="stop13" />
      <stop
         offset="1"
         stop-color="#5fc7ff"
         stop-opacity="0.98"
         id="stop15" />
    </radialGradient>
    <radialGradient
       id="radial-gradient-2"
       cx="84.220001"
       cy="-434.62"
       r="24.08"
       gradientTransform="matrix(1,0,0,-1,0,-381.05)"
       gradientUnits="userSpaceOnUse">
      <stop
         offset="0"
         stop-color="#ec0a1c"
         id="stop18" />
      <stop
         offset="1"
         stop-color="#bb0e15"
         id="stop20" />
    </radialGradient>
    <radialGradient
       id="radial-gradient-3"
       cx="106.44"
       cy="-468.92001"
       r="41.360001"
       gradientTransform="matrix(1,0,0,-1,0,-381.05)"
       gradientUnits="userSpaceOnUse">
      <stop
         offset="0"
         stop-color="#5bc0ff"
         stop-opacity="0.98"
         id="stop23" />
      <stop
         offset="1"
         stop-color="#003789"
         id="stop25" />
    </radialGradient>
    <radialGradient
       id="radial-gradient-4"
       cx="53.82"
       cy="-485.48999"
       r="27.02"
       gradientTransform="matrix(1,0,0,-1,0,-381.05)"
       gradientUnits="userSpaceOnUse">
      <stop
         offset="0"
         stop-color="#42b4f3"
         stop-opacity="0.98"
         id="stop28" />
      <stop
         offset="1"
         stop-color="#003a80"
         id="stop30" />
    </radialGradient>
    <radialGradient
       id="radial-gradient-5"
       cx="88.489998"
       cy="-453.17001"
       r="47.740002"
       gradientTransform="matrix(1,0,0,-1,0,-381.05)"
       gradientUnits="userSpaceOnUse">
      <stop
         offset="0"
         stop-color="#5fc7ff"
         id="stop33" />
      <stop
         offset="1"
         stop-color="#003785"
         stop-opacity="0.98"
         id="stop35" />
    </radialGradient>
    <radialGradient
       id="radial-gradient-6"
       cx="47.209999"
       cy="-443.95001"
       r="55.18"
       gradientTransform="matrix(1,0,0,-1,0,-381.05)"
       gradientUnits="userSpaceOnUse">
      <stop
         offset="0"
         stop-color="#ec0a1c"
         id="stop38" />
      <stop
         offset="1"
         stop-color="#9e0d18"
         id="stop40" />
    </radialGradient>
  </defs>
  <title
     id="title45">Swisscom_Lifeform_RGB_Colour</title>
  <g
     id="swisscom_logo-2"
     data-name="swisscom_logo"
     transform="translate(-36.846128,-36.827939)">
    <path
       class="cls-2"
       d="m 70.91,63.05 v 0 a 6.38,6.38 0 0 0 -5.19,4 c -0.92,2.05 -1.42,4.31 -2.77,6.15 -2.8,3.84 -10.06,2.94 -11.17,8.21 -1.63,7.74 8.44,9.37 11.43,14.76 2.19,4 1.12,10.15 5.26,12.94 a 7.07,7.07 0 0 0 2.06,0.92 3,3 0 0 0 0.39,0.08 c 0,0 -0.01,-47.06 -0.01,-47.06 z"
       id="path49" />
    <path
       class="cls-3"
       d="m 70.92,110.13 -0.39,-0.08 a 7.12,7.12 0 0 1 -2.07,-0.92 c -4.14,-2.79 -3.07,-9 -5.25,-12.94 a 11.37,11.37 0 0 0 -3,-3.28 L 60.1,92.82 c -0.48,0.48 -1.19,1.23 -2.34,2.38 a 32,32 0 0 0 -2.51,2.89 v 0 a 35.66,35.66 0 0 1 6.6,9.2 c 2,4.49 2.54,9.38 4.1,14 a 17.94,17.94 0 0 0 2.32,4.88 6.09,6.09 0 0 0 2.66,2.21 v -18.3 z"
       id="path51"
       style="fill:url(#linear-gradient)" />
    <path
       class="cls-4"
       d="m 66,53.19 c 0.44,0.48 1,1.06 1.5,1.58 0.5,0.52 1.18,1.22 1.91,1.92 0.45,0.43 1,1 1.47,1.4 V 36.94 a 5.66,5.66 0 0 0 -1.49,-0.1 12.91,12.91 0 0 0 -3.69,0.76 9.5,9.5 0 0 0 -2.91,1.64 5.53,5.53 0 0 0 -1.92,3.12 8,8 0 0 0 0.84,5 18.86,18.86 0 0 0 1.77,3 c 0,0 0.5,0.61 0.78,0.92 0.57,0.58 1.16,1.24 1.74,1.91 z"
       id="path53"
       style="fill:url(#radial-gradient)" />
    <path
       class="cls-5"
       d="m 99.75,69.55 a 27.37,27.37 0 0 0 -2.39,-9.26 23.91,23.91 0 0 0 -4.74,-6.78 c -0.19,-0.19 -0.39,-0.39 -0.59,-0.57 a 25,25 0 0 0 -3.56,-2.77 25.86,25.86 0 0 0 -3.93,-2.07 23.36,23.36 0 0 0 -7.07,-1.75 12.66,12.66 0 0 0 -6.56,1 v 10.7 0 c 1.2,1.1 2.64,2.42 3.37,3.07 0.51,0.45 1,0.88 1.51,1.32 l 1.49,1.25 1.55,1.31 c 0.64,0.54 2.94,2.4 3.21,2.63 l 0.45,0.36 5.81,4.71 0.13,0.1 c 0.78,0.63 4.79,3.86 6.76,5.55 1.97,1.69 3.45,3 3.59,3.15 a 48.15,48.15 0 0 0 0.87,-5.32 37.1,37.1 0 0 0 0.1,-6.63 z"
       id="path55"
       style="fill:url(#radial-gradient-2)" />
    <path
       class="cls-6"
       d="m 112.35,100.58 a 26.08,26.08 0 0 0 -3.28,-7.42 50.76,50.76 0 0 0 -7.27,-8.8 c -1,-1 -2,-1.9 -3,-2.85 -0.1,0.45 -0.35,1.52 -0.85,3.15 -0.26,0.85 -0.73,2.25 -0.91,2.78 -0.27,0.77 -0.79,2.15 -1.14,3 -0.48,1.25 -1.24,3 -1.92,4.46 C 93,97 92.45,98 91.36,100 c -0.49,0.89 -0.91,1.74 -1.52,2.8 -0.21,0.36 -0.43,0.74 -0.69,1.16 -0.11,0.17 -1.37,2.21 -1.5,2.44 -0.25,0.39 -0.53,0.84 -0.7,1.09 -1.51,2.31 -1.64,2.42 -1.88,2.76 -0.56,0.76 0.2,-0.28 -0.86,1.21 L 81.7,115 c -0.37,0.51 -1.62,2.15 -3,3.86 -1.38,1.71 -2.8,3.58 -3.43,4.33 l -4.41,5.2 v 10.45 c 1.86,-0.15 3.8,-0.41 5.79,-0.77 a 66.86,66.86 0 0 0 7.54,-1.87 62.31,62.31 0 0 0 6.38,-2.38 54.74,54.74 0 0 0 5.46,-2.76 44.25,44.25 0 0 0 6.42,-4.51 32.83,32.83 0 0 0 5.91,-6.52 26.15,26.15 0 0 0 3.78,-8.35 25.76,25.76 0 0 0 0.76,-5.21 20.55,20.55 0 0 0 -0.55,-5.89 z"
       id="path57"
       style="fill:url(#radial-gradient-3)" />
    <path
       class="cls-7"
       d="m 68.26,126.22 a 17.94,17.94 0 0 1 -2.32,-4.88 c -1.56,-4.66 -2.06,-9.55 -4.1,-14 a 35.73,35.73 0 0 0 -6.59,-9.2 27.3,27.3 0 0 0 -1.93,2.86 16.66,16.66 0 0 0 -1.32,2.85 14.29,14.29 0 0 0 -0.44,1.71 12,12 0 0 0 -0.2,1.8 12.3,12.3 0 0 0 0.14,2.33 14.14,14.14 0 0 0 0.64,2.5 17.21,17.21 0 0 0 1.42,3 l 0.25,0.41 a 24.12,24.12 0 0 0 4.26,5.11 32.86,32.86 0 0 0 2.93,2.41 c 0.69,0.49 1.39,1 2.11,1.41 1,0.6 1.95,1.16 2.95,1.68 1.36,0.7 3.5,1.67 4.87,2.22 v 0 a 6.09,6.09 0 0 1 -2.67,-2.21 z"
       id="path59"
       style="fill:url(#radial-gradient-4)" />
    <path
       class="cls-8"
       d="m 98.78,81.5 c -0.14,-0.13 -1.75,-1.58 -3.59,-3.15 -1.84,-1.57 -6,-4.92 -6.76,-5.55 L 88.3,72.7 82.49,68 c -0.22,-0.17 -0.37,-0.3 -0.45,-0.37 -0.27,-0.22 -2.57,-2.08 -3.21,-2.62 l -1.55,-1.3 -1.48,-1.23 c -0.54,-0.44 -1,-0.87 -1.52,-1.33 -0.73,-0.64 -2.17,-2 -3.37,-3.06 v 0 c -0.46,-0.43 -1,-1 -1.46,-1.39 -0.73,-0.7 -1.29,-1.26 -1.91,-1.92 -0.62,-0.66 -1.06,-1.1 -1.5,-1.58 -0.62,-0.67 -1.21,-1.33 -1.74,-1.95 l -0.6,-0.7 v 0 c 0.35,0.57 1.08,1.62 1.45,2.14 1,1.48 0.81,1.17 1.81,2.67 0.68,1 1.83,2.86 2.46,3.92 a 4.1,4.1 0 0 1 0.22,0.41 16.8,16.8 0 0 1 1,2.25 4.12,4.12 0 0 1 0.25,1.1 v 0 c 0,0 0,47.05 0,47.08 v 0 18.3 l 4.41,-5.2 c 0.63,-0.75 2.07,-2.58 3.43,-4.33 1.36,-1.75 2.58,-3.35 3,-3.86 l 2.51,-3.58 c 1.06,-1.49 0.3,-0.45 0.86,-1.21 0.24,-0.34 0.37,-0.45 1.88,-2.76 l 0.7,-1.09 c 0.13,-0.23 1.39,-2.27 1.5,-2.45 0.26,-0.41 0.48,-0.79 0.69,-1.15 0.61,-1.06 1,-1.91 1.52,-2.8 1.09,-2 1.62,-3 2.6,-5.08 0.68,-1.48 1.44,-3.22 1.92,-4.46 0.35,-0.87 0.87,-2.26 1.13,-3 0.19,-0.54 0.66,-1.93 0.92,-2.78 0.5,-1.64 0.75,-2.71 0.85,-3.16 v 0 z"
       id="path61"
       style="fill:url(#radial-gradient-5)" />
    <path
       class="cls-9"
       d="m 55.24,98.09 a 32,32 0 0 1 2.51,-2.89 c 1.15,-1.15 1.86,-1.89 2.34,-2.38 -4,-3.15 -9.55,-5.51 -8.31,-11.39 1.11,-5.27 8.37,-4.37 11.17,-8.21 1.35,-1.84 1.85,-4.1 2.77,-6.15 a 6.38,6.38 0 0 1 5.19,-4 v 0 a 4.11,4.11 0 0 0 -0.25,-1.11 16.13,16.13 0 0 0 -1,-2.24 3.36,3.36 0 0 0 -0.22,-0.42 c -0.63,-1.05 -1.78,-2.89 -2.46,-3.92 -1,-1.5 -0.78,-1.19 -1.81,-2.66 -0.37,-0.53 -1.1,-1.58 -1.45,-2.15 v 0 a 1.89,1.89 0 0 1 -0.18,-0.22 18.47,18.47 0 0 1 -1.77,-3 l -0.26,-0.63 -3.24,2.4 c -2.56,1.88 -5.14,3.74 -7.63,5.71 -1.64,1.29 -3.25,2.63 -4.79,4 a 44.59,44.59 0 0 0 -4.27,4.4 c -2.47,3 -4.42,6.36 -4.7,10.2 a 13.06,13.06 0 0 0 0,1.88 13.62,13.62 0 0 0 0.26,2 15.73,15.73 0 0 0 2.94,6.4 36.68,36.68 0 0 0 5.5,5.65 l 1,0.89 c 2.35,2 4.74,4 7,6.2 0.64,0.6 1.25,1.23 1.86,1.87 l -0.19,-0.21 z"
       id="path63"
       style="fill:url(#radial-gradient-6)" />
  </g>
  <metadata
     id="metadata69">
    <rdf:RDF>
      <cc:Work
         rdf:about="">
        <dc:title>Swisscom_Lifeform_RGB_Colour</dc:title>
      </cc:Work>
    </rdf:RDF>
  </metadata>
</svg>
