<?xml version="1.0" encoding="UTF-8" standalone="no"?>
<svg
   id="swisscom_logo"
   viewBox="0 0 283.48999 52.679035"
   version="1.1"
   sodipodi:docname="swisscom-wordmark-white.svg"
   width="283.48999"
   height="52.679035"
   inkscape:version="1.1.2 (0a00cf5339, 2022-02-04, custom)"
   xmlns:inkscape="http://www.inkscape.org/namespaces/inkscape"
   xmlns:sodipodi="http://sodipodi.sourceforge.net/DTD/sodipodi-0.dtd"
   xmlns="http://www.w3.org/2000/svg"
   xmlns:svg="http://www.w3.org/2000/svg"
   xmlns:rdf="http://www.w3.org/1999/02/22-rdf-syntax-ns#"
   xmlns:cc="http://creativecommons.org/ns#"
   xmlns:dc="http://purl.org/dc/elements/1.1/">
  <sodipodi:namedview
     id="namedview13"
     pagecolor="#000000"
     bordercolor="#666666"
     borderopacity="1.0"
     inkscape:pageshadow="2"
     inkscape:pageopacity="0"
     inkscape:pagecheckerboard="true"
     showgrid="false"
     fit-margin-top="0"
     fit-margin-left="0"
     fit-margin-right="0"
     fit-margin-bottom="0"
     inkscape:zoom="1.2876973"
     inkscape:cx="39.217291"
     inkscape:cy="112.21581"
     inkscape:window-width="1894"
     inkscape:window-height="1129"
     inkscape:window-x="0"
     inkscape:window-y="0"
     inkscape:window-maximized="1"
     inkscape:current-layer="swisscom_logo" />
  <defs
     id="defs4">
    <style
       id="style2">.cls-1{fill:#fff;}.cls-2{fill:none;}</style>
  </defs>
  <title
     id="title6">Swisscom_Wordmark_RGB_White</title>
  <path
     class="cls-1"
     d="m 153.4,23.588598 a 24.16,24.16 0 0 0 -7.61,-1.55 c -2.9,0 -5.17,0.76 -5.17,3.4 0,6.24 16.06,2.4 16.06,15.24 0,8.689999 -7.05,11.999999 -15,11.999999 a 37.11,37.11 0 0 1 -10.64,-1.58 l 0.63,-7.619999 a 36,36 0 0 0 9.64,1.77 c 3.08,0 5.6,-1 5.6,-3.65 0,-6.68 -16.06,-2.4 -16.06,-15.18 0,-8 6.74,-11.27 14.17,-11.27 a 30.51,30.51 0 0 1 10.07,1.58 z m -29.34,0 a 24.57,24.57 0 0 0 -7.61,-1.55 c -2.9,0 -5.23,0.76 -5.23,3.4 0,6.24 16.12,2.4 16.12,15.24 0,8.689999 -7.12,11.999999 -15,11.999999 a 38.58,38.58 0 0 1 -10.76,-1.58 l 0.69,-7.619999 a 36.65,36.65 0 0 0 9.69,1.77 c 3,0 5.55,-1 5.55,-3.65 0,-6.68 -16.12,-2.4 -16.12,-15.18 0,-8 6.8,-11.27 14.16,-11.27 a 31.89,31.89 0 0 1 10.21,1.58 z m 148.35,-8.5 c 7,0 11.08,3.78 11.08,12 v 24.809999 h -9.3 V 29.038598 c 0,-3.71 -1.07,-6.17 -5,-6.17 -3.93,0 -7.43,3.46 -7.43,9.69 v 19.399999 h -9.13 V 29.038598 c 0,-3.46 -1.13,-6.17 -5.1,-6.17 -4.15,0 -7.36,3.84 -7.36,10.07 v 18.999999 h -9.45 V 15.848598 c 6.17,-0.76 8.5,1.76 8.75,5.79 a 12.47,12.47 0 0 1 11.28,-6.55 c 6.48,0 9.06,3.59 10,7 1.58,-3.58 5.61,-7 11.72,-7 z m -189.839996,0.76 c -2,10.7 -7.18,27.58 -10.45,36.079999 H 62.29 L 55.37,27.928598 H 55.24 L 48.32,51.928597 H 38.56 C 35.41,43.548598 29.74,26.108598 28.11,15.848598 h 9.25 l 6.11,24.81 h 0.12 l 7.31,-24.81 h 9.29 l 7.110004,24.62 h 0.13 l 6.17,-24.62 z m -60.000004,7.74 a 24.28,24.28 0 0 0 -7.62,-1.55 c -2.9,0 -5.1,0.76 -5.1,3.4 0,6.24 16,2.4 16,15.24 0,8.689999 -7,11.999999 -15,11.999999 a 37.11,37.11 0 0 1 -10.66,-1.51 l 0.57,-7.619999 a 36.66,36.66 0 0 0 9.7,1.77 c 3.08,0 5.6,-1 5.6,-3.65 0,-6.68 -16.06,-2.4 -16.06,-15.18 0,-8 6.74,-11.27 14.17,-11.27 a 30.93,30.93 0 0 1 10.08,1.58 z m 185.11,29.089999 c -10.26,0 -17.44,-5.6 -17.44,-18.189999 0,-11.27 7.55,-19.4 18.51,-19.4 10.2,0 16.81,5.74 16.81,18 0,11.78 -7.17,19.579999 -17.88,19.579999 z m 0.38,-29.639999 c -4.16,0 -8.13,3.08 -8.13,11 0,6.86 2.59,10.7 8,10.7 4.6,0 8.12,-3.71 8.12,-11 0,-7 -2.51,-10.7 -8,-10.7 z M 86.790004,51.928597 h 9.25 V 15.848598 c -4.34,-0.44 -9.25,0.76 -9.25,7.56 z m 5.1,-40.609999 a 5.8,5.8 0 0 0 5.92,-5.7300002 5.83,5.83 0 0 0 -11.65,0 5.79,5.79 0 0 0 5.73,5.7300002 z M 178.27,52.558597 c -10.7,0 -17.69,-5.35 -17.69,-18.129999 0,-10.84 6,-19.21 19.14,-19.21 a 26.8,26.8 0 0 1 8.82,1.51 l -2,7.56 a 19.16,19.16 0 0 0 -6.55,-1.32 c -6.73,0 -9.5,4.4 -9.5,11 0,6.43 2.52,10.71 9.13,10.71 a 18.43,18.43 0 0 0 7.3,-1.58 l 1.07,7.429999 c -1.8,1.15 -5.69,2.03 -9.72,2.03 z"
     id="path8" />
  <rect
     class="cls-2"
     x="-53.961403"
     y="-320.32001"
     width="175.72"
     height="357.13"
     transform="rotate(90)"
     id="rect10" />
  <metadata
     id="metadata15">
    <rdf:RDF>
      <cc:Work
         rdf:about="">
        <dc:title>Swisscom_Wordmark_RGB_White</dc:title>
      </cc:Work>
    </rdf:RDF>
  </metadata>
</svg>
