<?xml version="1.0" encoding="UTF-8" standalone="no"?>
<!-- Created with Inkscape (http://www.inkscape.org/) -->

<svg
   width="160.00165mm"
   height="73.383873mm"
   viewBox="0 0 160.00165 73.383873"
   version="1.1"
   id="svg1435"
   inkscape:version="1.1.2 (0a00cf5339, 2022-02-04, custom)"
   sodipodi:docname="swisscom-work.svg"
   xmlns:inkscape="http://www.inkscape.org/namespaces/inkscape"
   xmlns:sodipodi="http://sodipodi.sourceforge.net/DTD/sodipodi-0.dtd"
   xmlns="http://www.w3.org/2000/svg"
   xmlns:svg="http://www.w3.org/2000/svg">
  <sodipodi:namedview
     id="namedview1437"
     pagecolor="#ffffff"
     bordercolor="#666666"
     borderopacity="1.0"
     inkscape:pageshadow="2"
     inkscape:pageopacity="0.0"
     inkscape:pagecheckerboard="0"
     inkscape:document-units="mm"
     showgrid="false"
     fit-margin-top="0"
     fit-margin-left="0"
     fit-margin-right="0"
     fit-margin-bottom="0"
     inkscape:zoom="0.5701459"
     inkscape:cx="491.10236"
     inkscape:cy="87.69685"
     inkscape:window-width="1703"
     inkscape:window-height="1394"
     inkscape:window-x="0"
     inkscape:window-y="0"
     inkscape:window-maximized="1"
     inkscape:current-layer="layer1" />
  <defs
     id="defs1432">
    <clipPath
       clipPathUnits="userSpaceOnUse"
       id="clipPath742">
      <path
         d="m 1493.31,944.543 h 30.65 v -75.589 h -30.65 z"
         id="path740" />
    </clipPath>
    <clipPath
       clipPathUnits="userSpaceOnUse"
       id="clipPath746">
      <path
         d="m 1501.065,944.543 c -0.745,-5.493 -1.907,-13.348 10.329,-19.511 8.138,-4.098 9.457,-10.709 7.259,-16.953 -1.699,-4.837 -7.064,-6.708 -10.776,-8.414 -19.227,-9.002 -15.65,-26.307 -10.389,-30.555 l 13.481,-0.156 c -4.351,4.471 -7.69,13.303 -5.387,19.071 2.302,5.768 9.59,7.802 14.054,12.244 6.26,6.215 5.627,17.885 -1.266,23.407 -3.183,2.541 -7.237,3.764 -10.553,6.126 -5.037,3.57 -7.139,8.57 -6.752,14.741"
         id="path744" />
    </clipPath>
    <mask
       maskUnits="userSpaceOnUse"
       x="0"
       y="0"
       width="1"
       height="1"
       id="mask758">
      <g
         id="g768">
        <g
           id="g766">
          <g
             id="g764">
            <g
               id="g762">
              <path
                 d="M -32768,32767 H 32767 V -32768 H -32768 Z"
                 style="fill:url(#linearGradient756);stroke:none"
                 id="path760" />
            </g>
          </g>
        </g>
      </g>
    </mask>
    <linearGradient
       x1="0"
       y1="0"
       x2="1"
       y2="0"
       gradientUnits="userSpaceOnUse"
       gradientTransform="matrix(0,-75.588814,75.588814,0,1508.6377,944.54279)"
       spreadMethod="pad"
       id="linearGradient756">
      <stop
         style="stop-opacity:1;stop-color:#ffffff"
         offset="0"
         id="stop752" />
      <stop
         style="stop-opacity:0.4;stop-color:#ffffff"
         offset="1"
         id="stop754" />
    </linearGradient>
    <linearGradient
       x1="0"
       y1="0"
       x2="1"
       y2="0"
       gradientUnits="userSpaceOnUse"
       gradientTransform="matrix(0,-75.588814,75.588814,0,1508.6377,944.54279)"
       spreadMethod="pad"
       id="linearGradient774">
      <stop
         style="stop-opacity:1;stop-color:#ffffff"
         offset="0"
         id="stop770" />
      <stop
         style="stop-opacity:1;stop-color:#1da9fd"
         offset="1"
         id="stop772" />
    </linearGradient>
    <clipPath
       clipPathUnits="userSpaceOnUse"
       id="clipPath800">
      <path
         d="m 1498.39,912.791 h 10.93 v -10.646 h -10.93 z"
         id="path798" />
    </clipPath>
    <clipPath
       clipPathUnits="userSpaceOnUse"
       id="clipPath816">
      <path
         d="m 1507.32,944.333 h 5.28 v -5.998 h -5.28 z"
         id="path814" />
    </clipPath>
    <clipPath
       clipPathUnits="userSpaceOnUse"
       id="clipPath832">
      <path
         d="m 1498.95,956.011 h 3.05 v -3.003 h -3.05 z"
         id="path830" />
    </clipPath>
    <clipPath
       clipPathUnits="userSpaceOnUse"
       id="clipPath848">
      <path
         d="m 1509.87,883.477 h 3.83 v -6.327 h -3.83 z"
         id="path846" />
    </clipPath>
  </defs>
  <g
     inkscape:label="Layer 1"
     inkscape:groupmode="layer"
     id="layer1"
     transform="translate(82.42634,-91.702256)">
    <g
       id="g620"
       transform="matrix(0.35277777,0,0,-0.35277777,-4.3343943,115.39226)">
      <path
         d="m 0,0 -2.005,-17.409 c 0,0 10.315,-10.604 21.798,-10.604 11.484,0 23.103,12.818 23.103,12.818 l -0.589,14.904 z"
         style="fill:#f0ab8a;fill-opacity:1;fill-rule:nonzero;stroke:none"
         id="path622" />
    </g>
    <g
       id="g624"
       transform="matrix(0.35277777,0,0,-0.35277777,29.775512,128.95234)">
      <path
         d="m 0,0 c -1.449,1.981 -15.595,20.883 -30.379,24.413 -7.209,1.692 -14.287,3.901 -21.18,6.61 l -2.801,7.072 -42.329,0.343 -4.949,-5.329 c 0,0 -34.36,-4.582 -42.418,-14.158 l -0.007,0.022 c 0,0 -47.102,-55.356 -47.738,-78.205 h -0.017 c 0,0 -0.096,-6.423 0.453,-8.898 0.502,-3.888 2.338,-8.968 8.236,-11.246 10.21,-3.942 34.362,-8.138 34.362,-8.138 v -8.131 c 0,0 36.823,26.83 61.564,25.629 24.742,-1.2 71.878,-27.402 71.878,-27.402 l 1.582,9.951 c 48.73,1.108 51.515,17.749 51.515,17.749 C 44.766,-54.333 13.4,-15.53 0,0"
         style="fill:#6539d4;fill-opacity:1;fill-rule:nonzero;stroke:none"
         id="path626" />
    </g>
    <g
       id="g628"
       transform="matrix(0.35277777,0,0,-0.35277777,-6.0800093,102.51535)">
      <path
         d="m 0,0 c 0,0 2.504,-30.927 5.597,-38.439 3.092,-7.512 10.313,-14.286 20.918,-14.16 10.605,0.127 18.407,9.577 20.762,15.762 2.355,6.186 8.399,31.814 8.69,38.007 0.29,6.193 -3.532,23.892 -28.275,23.847 C 10.143,25.018 0.589,15.441 0,0"
         style="fill:#f0ab8a;fill-opacity:1;fill-rule:nonzero;stroke:none"
         id="path630" />
    </g>
    <g
       id="g632"
       transform="matrix(0.35277777,0,0,-0.35277777,-5.536026,105.88847)">
      <path
         d="m 0,0 c 0.156,5.764 0.739,11.508 1.744,17.185 0.261,1.491 0.515,3.175 -0.365,4.412 -1.11,1.55 -3.6,1.49 -5.119,0.365 C -5.261,20.837 -5.977,18.877 -6.371,17.006 -6.877,14.598 -6.968,12.12 -6.64,9.681 -6.117,5.866 -4.935,2.172 -3.145,-1.237 -1.602,-3.957 -0.074,-3.704 0,0"
         style="fill:#001155;fill-opacity:1;fill-rule:nonzero;stroke:none"
         id="path634" />
    </g>
    <g
       id="g636"
       transform="matrix(0.35277777,0,0,-0.35277777,-7.3419659,104.15058)">
      <path
         d="m 0,0 c -0.488,-0.049 -0.956,-0.224 -1.356,-0.507 -0.969,-0.745 -1.133,-2.101 -1.141,-3.316 -0.012,-6.164 1.987,-12.164 5.694,-17.088 0.491,-0.649 1.162,-1.334 1.967,-1.215 1.081,0.164 1.371,1.58 1.387,2.675 C 6.61,-15.009 7.467,0.901 0,0"
         style="fill:#f0ab8a;fill-opacity:1;fill-rule:nonzero;stroke:none"
         id="path638" />
    </g>
    <g
       id="g640"
       transform="matrix(0.35277777,0,0,-0.35277777,13.427155,100.05194)">
      <path
         d="M 0,0 C 0,0 -0.671,-12.073 -2.884,-15.255 -5.098,-18.437 0,-16.179 0,-16.179 c 0,0 3.204,10.955 2.899,16.395"
         style="fill:#001155;fill-opacity:1;fill-rule:nonzero;stroke:none"
         id="path642" />
    </g>
    <g
       id="g644"
       transform="matrix(0.35277777,0,0,-0.35277777,14.371118,105.97253)">
      <path
         d="m 0,0 c -0.053,-1.715 -0.378,-3.41 -0.962,-5.023 -0.951,-3.576 -2.254,-7.048 -3.89,-10.366 -0.745,-1.408 -2.086,-2.981 -3.629,-2.541 -1.386,0.372 -1.885,2.064 -2.004,3.495 -0.38,4.783 0.754,9.564 3.241,13.667 C -5.187,2.668 -0.149,7.4 0,0"
         style="fill:#f0ab8a;fill-opacity:1;fill-rule:nonzero;stroke:none"
         id="path646" />
    </g>
    <g
       id="g648"
       transform="matrix(0.35277777,0,0,-0.35277777,-6.0800093,104.08754)">
      <path
         d="m 0,0 1.587,-4.74 c 0.926,0 1.677,0.751 1.678,1.677 0,0.012 -0.001,0.025 -0.001,0.037 L 2.787,16.097 Z"
         style="fill:#001155;fill-opacity:1;fill-rule:nonzero;stroke:none"
         id="path650" />
    </g>
    <g
       id="g652"
       transform="matrix(0.35277777,0,0,-0.35277777,-4.8259902,97.796274)">
      <path
         d="M 0,0 C 0,0 -4.412,-5.358 -0.291,-16.746 3.83,-28.133 0,0 0,0"
         style="fill:#f0ab8a;fill-opacity:1;fill-rule:nonzero;stroke:none"
         id="path654" />
    </g>
    <g
       id="g656"
       transform="matrix(0.35277777,0,0,-0.35277777,12.3781,97.796274)">
      <path
         d="m 0,0 c 0,0 3.503,-5.962 -2.385,-16.582 -3.42,-6.155 -4.903,4.613 -3.159,11.224 C -4.907,-2.639 -2.739,-0.543 0,0"
         style="fill:#f0ab8a;fill-opacity:1;fill-rule:nonzero;stroke:none"
         id="path658" />
    </g>
    <path
       d="M -82.42634,159.84914 H 77.575312 v 5.23699 H -82.42634 Z"
       style="fill:#00a9ff;fill-opacity:1;fill-rule:nonzero;stroke:none;stroke-width:0.352778"
       id="path660" />
    <path
       d="m 47.688332,146.57517 h 9.511947 v 13.30537 h -9.511947 z"
       style="fill:#010e59;fill-opacity:1;fill-rule:nonzero;stroke:none;stroke-width:0.352778"
       id="path730" />
    <g
       id="g732"
       transform="matrix(0.35277777,0,0,-0.35277777,57.200173,150.15587)">
      <path
         d="m 0,0 c 4.808,0 8.704,-3.896 8.704,-8.704 0,-4.807 -3.896,-8.704 -8.704,-8.704 -4.808,0 -8.704,3.897 -8.704,8.704 C -8.704,-3.896 -4.808,0 0,0 Z"
         style="fill:none;stroke:#020761;stroke-width:6.024;stroke-linecap:butt;stroke-linejoin:miter;stroke-miterlimit:10;stroke-dasharray:none;stroke-opacity:1"
         id="path734" />
    </g>
    <g
       id="g736"
       transform="matrix(0.35277777,0,0,-0.35277777,-477.94737,453.17257)">
      <g
         id="g738" />
      <g
         id="g792">
        <g
           clip-path="url(#clipPath742)"
           opacity="0.399994"
           id="g790">
          <g
             id="g788">
            <g
               clip-path="url(#clipPath746)"
               id="g786">
              <g
                 id="g784">
                <g
                   id="g776" />
                <g
                   mask="url(#mask758)"
                   id="g782">
                  <g
                     id="g780">
                    <path
                       d="m 1501.065,944.543 c -0.745,-5.493 -1.907,-13.348 10.329,-19.511 8.138,-4.098 9.457,-10.709 7.259,-16.953 -1.699,-4.837 -7.064,-6.708 -10.776,-8.414 -19.227,-9.002 -15.65,-26.307 -10.389,-30.555 l 13.481,-0.156 c -4.351,4.471 -7.69,13.303 -5.387,19.071 2.302,5.768 9.59,7.802 14.054,12.244 6.26,6.215 5.627,17.885 -1.266,23.407 -3.183,2.541 -7.237,3.764 -10.553,6.126 -5.037,3.57 -7.139,8.57 -6.752,14.741"
                       style="fill:url(#linearGradient774);stroke:none"
                       id="path778" />
                  </g>
                </g>
              </g>
            </g>
          </g>
        </g>
      </g>
    </g>
    <g
       id="g794"
       transform="matrix(0.35277777,0,0,-0.35277777,-477.94737,453.17257)">
      <g
         id="g796" />
      <g
         id="g808">
        <g
           clip-path="url(#clipPath800)"
           opacity="0.229996"
           id="g806">
          <g
             transform="translate(1507.8102,912.7736)"
             id="g804">
            <path
               d="m 0,0 c -0.528,0.057 -1.062,-0.03 -1.543,-0.253 -3.07,-1.163 -5.738,-4.472 -7.571,-7.349 -0.586,-0.915 -0.318,-2.131 0.597,-2.717 0.595,-0.38 1.348,-0.412 1.973,-0.084 2.552,1.334 4.814,3.16 6.655,5.373 0.711,0.739 1.189,1.673 1.371,2.682 C 1.639,-1.306 1.008,-0.306 0,0"
               style="fill:#1da9fd;fill-opacity:1;fill-rule:nonzero;stroke:none"
               id="path802" />
          </g>
        </g>
      </g>
    </g>
    <g
       id="g810"
       transform="matrix(0.35277777,0,0,-0.35277777,-477.94737,453.17257)">
      <g
         id="g812" />
      <g
         id="g824">
        <g
           clip-path="url(#clipPath816)"
           opacity="0.0800018"
           id="g822">
          <g
             transform="translate(1511.8112,943.5441)"
             id="g820">
            <path
               d="m 0,0 c -0.204,0.198 -0.437,0.364 -0.692,0.492 -2.415,1.267 -4.897,-1.796 -3.294,-4.01 1.192,-1.661 2.914,-2.899 4.471,0.284 C 1.025,-2.163 0.831,-0.867 0,0"
               style="fill:#1da9fd;fill-opacity:1;fill-rule:nonzero;stroke:none"
               id="path818" />
          </g>
        </g>
      </g>
    </g>
    <g
       id="g826"
       transform="matrix(0.35277777,0,0,-0.35277777,-477.94737,453.17257)">
      <g
         id="g828" />
      <g
         id="g840">
        <g
           clip-path="url(#clipPath832)"
           opacity="0.0800018"
           id="g838">
          <g
             transform="translate(1501.8707,953.7092)"
             id="g836">
            <path
               d="M 0,0 C 0.692,1.11 -1.535,3.614 -2.713,1.446 -3.689,-0.35 -0.947,-1.521 0,0"
               style="fill:#1da9fd;fill-opacity:1;fill-rule:nonzero;stroke:none"
               id="path834" />
          </g>
        </g>
      </g>
    </g>
    <g
       id="g842"
       transform="matrix(0.35277777,0,0,-0.35277777,-477.94737,453.17257)">
      <g
         id="g844" />
      <g
         id="g856">
        <g
           clip-path="url(#clipPath848)"
           opacity="0.229996"
           id="g854">
          <g
             transform="translate(1509.9264,882.0925)"
             id="g852">
            <path
               d="m 0,0 c 0.417,-1.566 1.041,-3.07 1.855,-4.472 0.316,-0.482 0.963,-0.616 1.445,-0.3 0.36,0.236 0.538,0.669 0.448,1.09 C 3.373,-2.08 2.747,-0.548 1.893,0.857 1.607,1.358 0.971,1.533 0.47,1.248 0.033,1 -0.165,0.475 0,0"
               style="fill:#1da9fd;fill-opacity:1;fill-rule:nonzero;stroke:none"
               id="path850" />
          </g>
        </g>
      </g>
    </g>
    <g
       id="g858"
       transform="matrix(0.35277777,0,0,-0.35277777,47.688262,151.20732)">
      <path
         d="m 0,0 h 6.007 c 3.317,0 6.007,-2.689 6.007,-6.007 0,-3.317 -2.69,-6.006 -6.007,-6.006 H 0 Z"
         style="fill:#2380e1;fill-opacity:1;fill-rule:nonzero;stroke:none"
         id="path860" />
    </g>
    <g
       id="g862"
       transform="matrix(0.35277777,0,0,-0.35277777,-64.557052,149.57742)">
      <path
         d="m 0,0 h 28.572 v -14.286 c 0,-7.89 -6.396,-14.286 -14.286,-14.286 C 6.396,-28.572 0,-22.176 0,-14.286 Z"
         style="fill:#010761;fill-opacity:1;fill-rule:nonzero;stroke:none"
         id="path864" />
    </g>
    <g
       id="g866"
       transform="matrix(0.35277777,0,0,-0.35277777,-62.640552,143.61741)">
      <path
         d="m 0,0 c 1.878,2.899 3.547,6.708 1.677,9.636 -1.49,2.303 -4.599,2.929 -7.333,2.713 -6.372,-0.492 -12.14,-4.419 -15.941,-9.554 -3.8,-5.135 -5.82,-11.372 -7.088,-17.654 -0.335,-1.685 -0.61,-3.466 -0.082,-5.106 7.066,0.418 14.317,2.9 20.868,5.605 4.65,1.922 9.687,4.203 11.871,8.741 0.537,1.004 0.753,2.149 0.619,3.279 C 4.232,-0.275 2.012,0.537 0,0"
         style="fill:#1cada7;fill-opacity:1;fill-rule:nonzero;stroke:none"
         id="path868" />
    </g>
    <g
       id="g870"
       transform="matrix(0.35277777,0,0,-0.35277777,-56.275735,139.09815)">
      <path
         d="m 0,0 c -2.929,10.322 2.467,21.701 10.925,28.319 8.459,6.618 19.376,9.203 30.062,10.232 C 38.953,29.288 36.844,19.302 31.873,11.223 26.902,3.145 18.459,-3.436 8.979,-3.577 5.917,-3.629 0.864,-2.973 0,0"
         style="fill:#1cada7;fill-opacity:1;fill-rule:nonzero;stroke:none"
         id="path872" />
    </g>
    <g
       id="g874"
       transform="matrix(0.35277777,0,0,-0.35277777,-67.930172,146.83514)">
      <path
         d="m 0,0 c 2.467,2.787 18.176,14.353 20.568,7.75 1.267,-3.495 3.622,-11.924 3.994,-15.649 1.849,6.467 4.36,14.717 6.708,21.03 4.196,11.379 9.628,23.05 19.592,29.951"
         style="fill:none;stroke:#020761;stroke-width:0.998;stroke-linecap:butt;stroke-linejoin:miter;stroke-miterlimit:10;stroke-dasharray:none;stroke-opacity:1"
         id="path876" />
    </g>
    <g
       id="g878"
       transform="matrix(0.35277777,0,0,-0.35277777,-65.027658,152.72176)">
      <path
         d="m 0,0 c 3.338,1.818 7.69,0.484 10.738,-1.743 3.048,-2.229 5.336,-5.269 8.414,-7.452 3.077,-2.184 7.49,-3.421 10.746,-1.492"
         style="fill:none;stroke:#ffffff;stroke-width:0.534;stroke-linecap:butt;stroke-linejoin:miter;stroke-miterlimit:10;stroke-dasharray:none;stroke-opacity:1"
         id="path880" />
    </g>
    <g
       id="g882"
       transform="matrix(0.35277777,0,0,-0.35277777,-58.344883,149.3697)">
      <path
         d="M 0,0 C 1.408,-0.066 2.534,-1.341 3.309,-2.66 4.084,-3.979 4.68,-5.47 5.761,-6.483 7.222,-7.846 9.423,-8.036 11.097,-6.945"
         style="fill:none;stroke:#ffffff;stroke-width:0.534;stroke-linecap:butt;stroke-linejoin:miter;stroke-miterlimit:10;stroke-dasharray:none;stroke-opacity:1"
         id="path884" />
    </g>
    <g
       id="g886"
       transform="matrix(0.35277777,0,0,-0.35277777,-64.522974,157.00953)">
      <path
         d="m 0,0 c 2.683,0.686 5.217,-1.229 7.586,-2.601 5.518,-3.124 12.105,-3.744 18.109,-1.707"
         style="fill:none;stroke:#ffffff;stroke-width:0.534;stroke-linecap:butt;stroke-linejoin:miter;stroke-miterlimit:10;stroke-dasharray:none;stroke-opacity:1"
         id="path888" />
    </g>
    <g
       id="g890"
       transform="matrix(0.35277777,0,0,-0.35277777,20.975012,159.82522)">
      <path
         d="m 0,0 h -118.045 l -2.884,74.911 c -0.098,2.607 1.936,4.801 4.543,4.9 0.058,0.002 0.116,0.003 0.175,0.003 H -1.08 c 2.604,0.003 4.72,-2.106 4.723,-4.711 0,-0.079 -0.002,-0.158 -0.006,-0.237 z"
         style="fill:#ffffff;fill-opacity:1;fill-rule:nonzero;stroke:none"
         id="path892" />
    </g>
    <g
       id="g894"
       transform="matrix(0.35277777,0,0,-0.35277777,-20.699967,158.70798)">
      <path
         d="m 0,0 0.089,-3.167 h 118.045 l 2.161,45.459 C 107.82,32.328 62.853,0.425 0,0"
         style="fill:#d9dfe3;fill-opacity:1;fill-rule:nonzero;stroke:none"
         id="path896" />
    </g>
    <g
       id="g898"
       transform="matrix(0.35277777,0,0,-0.35277777,0.95247444,146.58812)">
      <path
         d="m 0,0 c 1.646,0 2.981,-1.335 2.981,-2.98 0,-1.647 -1.335,-2.982 -2.981,-2.982 -1.646,0 -2.98,1.335 -2.98,2.982 C -2.98,-1.335 -1.646,0 0,0"
         style="fill:#00a9ff;fill-opacity:1;fill-rule:nonzero;stroke:none"
         id="path900" />
    </g>
    <g
       id="g902"
       transform="matrix(0.35277777,0,0,-0.35277777,20.975012,159.82522)">
      <path
         d="m 0,0 c 5.032,-0.227 10.072,-0.179 15.099,0.142 0.268,1.639 3.382,15.486 -5.821,22.051 -1.326,0.94 -2.993,1.266 -4.576,0.894 L 1.125,22.26 Z"
         style="fill:#f0ab8a;fill-opacity:1;fill-rule:nonzero;stroke:none"
         id="path904" />
    </g>
    <g
       id="g906"
       transform="matrix(0.35277777,0,0,-0.35277777,-7.7757062,99.888987)">
      <path
         d="m 0,0 c 0,0 2.235,25.576 32.79,23.028 30.555,-2.549 30.196,-23.311 30.196,-23.311 0,0 -13.414,-1.834 -18.37,6.044 -1.012,2.406 0.612,-13.415 -44.885,-13.124 z"
         style="fill:#001155;fill-opacity:1;fill-rule:nonzero;stroke:none"
         id="path908" />
    </g>
    <g
       id="g910"
       transform="matrix(0.35277777,0,0,-0.35277777,-20.573884,159.79626)">
      <path
         d="m 0,0 c 0,0 -6.021,-1.073 -15.366,1.781 -0.261,1.64 -3.109,13.847 6.088,20.412 1.328,0.937 2.993,1.262 4.576,0.894 l 3.577,-0.834 z"
         style="fill:#f0ab8a;fill-opacity:1;fill-rule:nonzero;stroke:none"
         id="path912" />
    </g>
  </g>
</svg>
